<?xml version="1.0" encoding="UTF-8" standalone="no"?>
<!-- Created with Inkscape (http://www.inkscape.org/) -->

<svg
   xmlns:dc="http://purl.org/dc/elements/1.1/"
   xmlns:cc="http://creativecommons.org/ns#"
   xmlns:rdf="http://www.w3.org/1999/02/22-rdf-syntax-ns#"
   xmlns:svg="http://www.w3.org/2000/svg"
   xmlns="http://www.w3.org/2000/svg"
   version="1.1"
   width="299.99921"
   height="59.421997"
   id="svg2"
   xml:space="preserve"><metadata
     id="metadata8"><rdf:RDF><cc:Work
         rdf:about=""><dc:format>image/svg+xml</dc:format><dc:type
           rdf:resource="http://purl.org/dc/dcmitype/StillImage" /><dc:title></dc:title></cc:Work></rdf:RDF></metadata><defs
     id="defs6" /><g
     transform="matrix(1.25,0,0,-1.25,-423.54142,1003.99)"
     id="g10"><path
       d="m 351.24597,782.35516 0,-12.72131 -8.24788,0 0,22.99621 c -9.82988,-14.50485 -1.33503,-33.81514 15.79679,-36.97566 l 0,26.70076 -7.54891,0"
       id="path12"
       style="fill:#808080;fill-opacity:1;fill-rule:evenodd;stroke:none" /><path
       d="m 351.24597,795.70554 0,-5.73158 16.21617,0 0,-12.65141 11.04377,0 0,12.65141 6.15096,0 c -4.11112,8.5764 -13.68822,13.93286 -23.136,13.14069 l 0,-7.40911 -10.2749,0"
       id="path14"
       style="fill:#1e3287;fill-opacity:1;fill-rule:evenodd;stroke:none" /><path
       d="m 367.46214,769.77365 0,-14.11925 c 3.95153,0.80848 7.99974,2.55591 11.04377,5.24229 l 0,8.87696 -11.04377,0"
       id="path16"
       style="fill:#1e3287;fill-opacity:1;fill-rule:evenodd;stroke:none" /><g
       transform="matrix(1.1649547,0,0,1.1649547,-75.686615,-128.56949)"
       id="g3200"
       style="fill:#1e3287;fill-opacity:1"><path
         d="m 404.34,788.48 2.28,0 0,-4.32 4.14,0 0,4.32 2.4,0 0,-10.8 -2.34,0 0,4.68 -4.2,0 0,-4.68 -2.28,0 0,10.8"
         id="path18"
         style="fill:#1e3287;fill-opacity:1;fill-rule:nonzero;stroke:none" /><path
         d="m 418.8,785.36 c 5.027,0.298 5.473,-7.447 0.54,-7.98 -6.097,-0.479 -5.637,8.316 -0.54,7.98 z m 0.06,-6.48 c 1.199,0.227 1.46,0.644 1.62,1.98 0.191,1.154 10e-4,3.264 -1.68,3 l -0.3,0 -0.18,-0.06 -0.42,-0.24 -0.3,-0.24 -0.18,-0.48 -0.12,-0.42 -0.06,-0.42 0,-0.66 c -0.061,-1.303 0.214,-2.259 1.62,-2.46"
         id="path20"
         style="fill:#1e3287;fill-opacity:1;fill-rule:nonzero;stroke:none" /><path
         d="m 428.58,782.48 c -0.328,2.586 -2.588,1.538 -2.16,-1.44 0.113,-1.017 0.117,-1.817 1.14,-2.16 0.84,0.324 0.942,0.556 1.02,1.56 l 2.22,0 c 0.048,-1.683 -1.319,-3.163 -3.12,-3 -2.45,-0.041 -3.509,1.609 -3.6,3.96 -0.486,4.333 6.295,5.714 6.72,1.08 l -2.22,0"
         id="path22"
         style="fill:#1e3287;fill-opacity:1;fill-rule:nonzero;stroke:none" /><path
         d="m 431.94,788.48 2.16,0 0,-4.32 c 0.657,0.968 1.884,1.35 3,1.08 l 0.66,-0.3 0.48,-0.3 0.3,-0.36 0.18,-0.36 0.18,-0.42 0.12,-0.54 0,-5.28 -2.16,0 0,4.44 -0.06,0.48 0,0.24 -0.18,0.3 -0.12,0.3 -0.24,0.12 -0.24,0.18 -0.48,0.06 -0.42,-0.06 -0.3,-0.06 -0.18,-0.18 -0.24,-0.18 -0.12,-0.3 -0.12,-0.36 0,-4.98 -2.22,0 0,10.8"
         id="path24"
         style="fill:#1e3287;fill-opacity:1;fill-rule:nonzero;stroke:none" /><path
         d="m 442.68,779.84 0.12,-0.36 0.24,-0.36 0.12,-0.12 0.24,-0.12 0.3,-0.06 0.54,0 0.24,0.06 0.36,0.18 0.24,0.3 0.06,0.36 0,0.18 -0.24,0.24 -0.3,0.18 c -0.957,0.586 -2.247,0.45 -3.12,1.2 l -0.3,0.18 -0.18,0.36 -0.18,0.42 -0.06,0.54 0.06,0.48 0.18,0.54 0.3,0.42 0.42,0.3 0.42,0.24 0.6,0.24 c 1.883,0.293 3.981,0.233 4.26,-2.1 l -2.04,0 c -0.041,0.578 -0.244,0.743 -0.78,0.9 l -0.3,0.06 -0.42,-0.06 -0.36,-0.18 -0.24,-0.3 -0.06,-0.24 0.06,-0.3 0.24,-0.24 0.3,-0.12 0.42,-0.18 1.38,-0.36 0.48,-0.12 0.84,-0.42 0.3,-0.24 0.18,-0.3 c 1.926,-3.937 -6.449,-5.187 -6.36,-1.2 l 2.04,0"
         id="path26"
         style="fill:#1e3287;fill-opacity:1;fill-rule:nonzero;stroke:none" /><path
         d="m 452.82,782.48 c -0.021,1.37 -1.472,2.192 -1.98,0.54 -0.294,-0.58 -0.185,-1.922 -0.12,-2.58 l 0.12,-0.72 0.18,-0.3 0.18,-0.24 0.18,-0.12 0.12,-0.06 0.3,-0.12 0.18,0.12 0.24,0.06 0.18,0.06 0.24,0.48 0.12,0.3 0.06,0.54 2.16,0 c 0.111,-4.187 -6.917,-4.259 -6.66,0.96 -0.553,4.378 6.307,5.68 6.66,1.08 l -2.16,0"
         id="path28"
         style="fill:#1e3287;fill-opacity:1;fill-rule:nonzero;stroke:none" /><path
         d="m 456.12,788.48 2.22,0 0,-4.32 c 0.59,0.986 1.862,1.336 2.94,1.08 l 0.66,-0.3 0.48,-0.3 0.3,-0.36 0.24,-0.36 0.12,-0.42 0.18,-0.54 0,-5.28 -2.22,0 0,4.44 -0.06,0.48 0,0.24 -0.12,0.3 -0.18,0.3 -0.18,0.12 -0.3,0.18 -0.42,0.06 -0.48,-0.06 -0.24,-0.06 -0.24,-0.18 -0.12,-0.18 -0.24,-0.3 -0.06,-0.36 0,-4.98 -2.28,0 0,10.8"
         id="path30"
         style="fill:#1e3287;fill-opacity:1;fill-rule:nonzero;stroke:none" /><path
         d="m 467.52,785.24 0,-4.56 0.06,-0.54 0,-0.24 0.06,-0.3 0.18,-0.18 0.18,-0.24 0.3,-0.12 0.48,0 0.42,0.06 0.36,0.06 0.3,0.24 0.12,0.3 0.06,0.36 0.06,0.42 0,4.74 2.34,0 0,-5.04 0.06,-2.04 0.12,-0.48 -2.22,0 -0.06,0.96 c -0.962,-1.19 -2.153,-1.519 -3.6,-0.9 l -0.6,0.3 -0.36,0.42 -0.12,0.24 -0.18,0.3 -0.12,0.54 -0.06,0.6 0,5.1 2.22,0"
         id="path32"
         style="fill:#1e3287;fill-opacity:1;fill-rule:nonzero;stroke:none" /><path
         d="m 474.6,777.68 2.28,0 0,10.8 -2.28,0 0,-10.8 z"
         id="path34"
         style="fill:#1e3287;fill-opacity:1;fill-rule:nonzero;stroke:none" /><path
         d="m 480.72,780.86 c -0.267,-2.262 2.449,-2.755 2.88,-0.96 l 2.04,0 c -0.559,-4.253 -8.717,-3.3 -6.9,2.82 1.377,4.671 7.948,2.993 7.02,-1.86 l -5.04,0 z m 2.82,1.44 c 0.212,2 -2.656,2.383 -2.76,0 l 2.76,0"
         id="path36"
         style="fill:#1e3287;fill-opacity:1;fill-rule:nonzero;stroke:none" /><path
         d="m 496.38,788.72 c 7.204,0.238 6.77,-11.678 0,-11.34 -7.178,-0.359 -6.985,11.629 0,11.34 z m -1.98,-8.76 c 4.206,-3.608 6.068,3.756 3.78,6.36 -4.163,2.992 -5.81,-3.698 -3.78,-6.36"
         id="path38"
         style="fill:#1e3287;fill-opacity:1;fill-rule:nonzero;stroke:none" /><path
         d="m 503.46,783.68 -1.14,0 0,1.56 1.14,0 c -0.211,3.211 0.71,3.559 3.78,3.3 l 0,-1.5 c -1.597,0.164 -1.7,-0.316 -1.62,-1.8 l 1.5,0 0,-1.56 -1.5,0 0,-6 -2.16,0 0,6"
         id="path40"
         style="fill:#1e3287;fill-opacity:1;fill-rule:nonzero;stroke:none" /><path
         d="m 508.2,783.68 -1.2,0 0,1.56 1.2,0 c -0.246,3.236 0.733,3.551 3.78,3.3 l 0,-1.5 c -1.636,0.167 -1.718,-0.275 -1.62,-1.8 l 1.44,0 0,-1.56 -1.44,0 0,-6 -2.16,0 0,6"
         id="path42"
         style="fill:#1e3287;fill-opacity:1;fill-rule:nonzero;stroke:none" /><path
         d="m 514.26,780.86 c -0.137,-2.376 2.553,-2.682 2.88,-0.96 l 2.04,0 c -0.086,-3.795 -8.524,-3.871 -6.84,2.82 1.433,4.609 7.817,3.127 7.08,-1.86 l -5.16,0 z m 2.82,1.44 c 0.036,0.853 -0.266,1.622 -1.26,1.62 -1.214,0.027 -1.206,-0.689 -1.5,-1.62 l 2.76,0"
         id="path44"
         style="fill:#1e3287;fill-opacity:1;fill-rule:nonzero;stroke:none" /><path
         d="m 521.04,783.86 -0.12,1.38 2.22,0 0,-1.14 c 0.763,1.313 2.103,1.457 3.48,1.14 l 0.36,-0.12 0.24,-0.24 0.3,-0.24 0.18,-0.18 0.24,-0.42 0.12,-0.36 0.06,-0.48 0,-5.52 -2.28,0 0,5.1 -0.12,0.36 -0.12,0.3 -0.24,0.12 -0.3,0.18 -0.42,0.06 -0.3,0 -0.36,-0.12 -0.3,-0.24 -0.18,-0.24 -0.12,-0.12 -0.06,-0.3 -0.06,-0.3 0,-4.8 -2.22,0 0,6.18"
         id="path46"
         style="fill:#1e3287;fill-opacity:1;fill-rule:nonzero;stroke:none" /><path
         d="m 530.16,788.42 2.22,0 0,-4.14 c 2.139,2.369 5.688,0.454 5.52,-3 0.212,-3.527 -3.677,-5.083 -5.52,-2.58 l -0.06,-1.02 -2.16,0 0,10.74 z M 534,783.8 c -1.251,0.162 -1.777,-1.268 -1.68,-2.28 -0.069,-1.049 0.345,-2.691 1.74,-2.52 2.244,-0.264 1.908,5.113 -0.06,4.8"
         id="path48"
         style="fill:#1e3287;fill-opacity:1;fill-rule:nonzero;stroke:none" /><path
         d="m 541.74,785.24 0,-5.34 0.12,-0.3 0.18,-0.18 0.18,-0.24 0.3,-0.12 0.36,0 0.54,0.06 0.3,0.06 0.24,0.24 0.18,0.3 0.12,0.36 0.06,0.42 0,4.74 2.28,0 0,-5.04 0.06,-2.04 0.06,-0.48 -2.16,0 -0.06,0.96 c -0.865,-1.272 -2.216,-1.463 -3.6,-0.9 l -0.54,0.3 -0.42,0.42 -0.18,0.24 -0.12,0.3 -0.12,0.54 0,0.6 -0.12,0.36 0,4.74 2.34,0"
         id="path50"
         style="fill:#1e3287;fill-opacity:1;fill-rule:nonzero;stroke:none" /><path
         d="m 548.82,783.38 -0.12,1.86 2.1,0 0.06,-1.44 c 0.359,1.123 1.405,1.557 2.52,1.44 l 0,-1.92 -0.72,0 -0.54,-0.18 -0.42,-0.12 -0.3,-0.3 -0.18,-0.3 -0.12,-0.36 0,-0.36 -0.06,-0.36 0,-3.66 -2.22,0 0,5.7"
         id="path52"
         style="fill:#1e3287;fill-opacity:1;fill-rule:nonzero;stroke:none" /><path
         d="m 561.6,785.18 c -0.295,-2.866 0.548,-6.02 -0.36,-8.76 -0.279,-0.741 -0.938,-1.3 -1.68,-1.56 -2.135,-0.344 -4.952,-0.552 -5.22,2.22 l 2.1,0 c 0.203,-0.95 0.944,-1.107 1.8,-0.96 l 0.48,0.18 0.12,0.18 0.18,0.12 0.12,0.24 0.06,0.18 0.06,0.6 0,1.2 c -1.628,-2.127 -4.793,-0.823 -5.22,2.04 -0.492,3.615 3.281,5.933 5.4,3.3 l 0.06,1.02 2.1,0 z m -3.84,-5.82 c 0.967,-0.103 1.558,0.834 1.5,1.62 0.266,1.033 -0.072,2.812 -1.44,2.82 -1.156,-0.078 -1.664,-1.234 -1.5,-2.28 -0.082,-0.941 0.243,-2.268 1.44,-2.16"
         id="path54"
         style="fill:#1e3287;fill-opacity:1;fill-rule:nonzero;stroke:none" /></g><path
       d="m 397.37818,769.84355 0,-6.22086 0.0699,-0.27959 0.1398,-0.34949 0.27959,-0.34948 0.34948,-0.27959 0.48929,-0.1398 0.90866,0 0.48928,0.0699 0.55918,0.27959 0.41938,0.41938 0.0699,0.20969 0.0699,0.27959 0.0699,0.97856 0,5.3821 1.95713,0 c -0.42288,-4.28937 1.66355,-8.6195 -3.98415,-9.15655 -5.8935,0.69664 -3.06499,4.55031 -3.84435,9.15655 l 1.95713,0"
       id="path56"
       style="fill:#808080;fill-opacity:1;fill-rule:nonzero;stroke:none" /><path
       d="m 405.20667,766.06909 -0.0699,1.18826 1.74743,0 0.0699,-0.97857 c 0.53239,0.87255 1.46552,1.18826 2.44641,1.04846 l 0.41938,-0.0699 0.27959,-0.1398 0.27959,-0.20969 0.41938,-0.34949 0.1398,-0.41938 0.20969,-0.55918 0,-4.61322 -1.88723,0 0,4.19384 -0.0699,0.34948 -0.20969,0.1398 -0.1398,0.27959 -0.27959,0.0699 -0.55918,0 -0.34948,-0.0699 -0.1398,-0.20969 -0.20969,-0.1398 -0.13979,-0.41938 -0.0699,-0.55918 0,-3.63466 -1.88723,0 0,5.1025"
       id="path58"
       style="fill:#808080;fill-opacity:1;fill-rule:nonzero;stroke:none" /><path
       d="m 412.89537,769.84355 2.02702,0 0,-1.60764 -2.02702,0 0,1.60764 z m 0.0699,-2.6561 1.88723,0 0,-6.22086 -1.88723,0 0,6.22086 z"
       id="path60"
       style="fill:#808080;fill-opacity:1;fill-rule:nonzero;stroke:none" /><path
       d="m 417.85808,767.18745 1.46784,-4.26374 1.39795,4.26374 1.81733,0 -2.30661,-6.22086 -2.02702,0 -2.37651,6.22086 2.02702,0"
       id="path62"
       style="fill:#808080;fill-opacity:1;fill-rule:nonzero;stroke:none" /><path
       d="m 424.9876,763.55279 c -0.20969,-1.93266 2.03751,-2.20176 2.30661,-0.76887 l 1.74743,0 c -0.11183,-1.70083 -1.82082,-2.22856 -3.28517,-2.09692 -2.5361,0.2528 -3.00558,2.74463 -2.30661,4.82291 1.51677,3.42847 6.3991,1.98392 5.73158,-1.95712 l -4.19384,0 z m 2.30661,1.18825 -0.0699,0.34949 -0.0699,0.48928 -0.1398,0.1398 -0.20969,0.27958 -0.20969,0.0699 -0.34949,0.0699 c -1.05778,-0.17707 -1.03448,-0.28774 -1.18825,-1.39795 l 2.23671,0"
       id="path64"
       style="fill:#808080;fill-opacity:1;fill-rule:nonzero;stroke:none" /><path
       d="m 430.50949,765.64971 -0.0699,1.60764 1.81733,0 0,-1.25816 0.20969,0.41939 0.20969,0.27959 0.2097,0.13979 0.27958,0.1398 0.34949,0.20969 0.41938,0.0699 0.48929,0 0,-1.67754 -0.62908,0 -0.48928,-0.0699 -0.34949,-0.20969 -0.20969,-0.13979 -0.20969,-0.27959 -0.0699,-0.20969 -0.0699,-0.69898 0,-3.00558 -1.88722,0 0,4.68312"
       id="path66"
       style="fill:#808080;fill-opacity:1;fill-rule:nonzero;stroke:none" /><path
       d="m 436.87014,762.71402 c 0.18872,-1.13932 1.84412,-1.12884 2.02702,-0.0699 l 0,0.13979 -0.13979,0.20969 -0.69898,0.34949 -1.18825,0.27959 -0.41938,0.20969 -0.62908,0.20969 -0.13979,0.27959 -0.27959,0.27959 c -1.16962,3.02655 4.98251,3.93172 5.0326,0.90866 l -1.67753,0 0,0.2097 -0.1398,0.20969 -0.20969,0.20969 -0.27959,0.13979 -0.27959,0 -0.27959,-0.13979 -0.34948,-0.0699 -0.2097,-0.13979 -0.0699,-0.34949 0.0699,-0.27959 0.2097,-0.13979 0.20969,-0.0699 0.41938,-0.0699 c 1.39329,-0.56267 1.61696,-0.18173 2.5862,-1.25815 l 0.1398,-0.27959 0.0699,-0.27959 0,-0.69897 -0.13979,-0.34949 -0.27959,-0.41938 -0.20969,-0.34949 -0.41939,-0.27958 -1.11835,-0.27959 -0.69898,-0.1398 -0.55917,0.1398 -0.62908,0.0699 c -1.08923,0.44735 -1.34902,0.70713 -1.39794,1.81733 l 1.67753,0"
       id="path68"
       style="fill:#808080;fill-opacity:1;fill-rule:nonzero;stroke:none" /><path
       d="m 441.90274,769.84355 2.02703,0 0,-1.60764 -2.02703,0 0,1.60764 z m 0.1398,-2.6561 1.81733,0 0,-6.22086 -1.81733,0 0,6.22086 z"
       id="path70"
       style="fill:#808080;fill-opacity:1;fill-rule:nonzero;stroke:none" /><path
       d="m 449.38175,761.03649 c -4.41051,-0.87605 -3.06965,1.33387 -3.28517,4.89281 l -1.25815,0 0,1.25815 1.25815,0 0,1.18825 1.81733,0.62908 0,-1.81733 1.46784,0 0,-1.25815 -1.46784,0 0,-3.21528 0.0699,-0.34948 0.13979,-0.0699 0.1398,-0.0699 0.48928,-0.0699 0.62907,0.0699 0,-1.18825"
       id="path72"
       style="fill:#808080;fill-opacity:1;fill-rule:nonzero;stroke:none" /><path
       d="m 452.03785,767.18745 1.39795,-4.40353 1.39794,4.40353 1.81733,0 -2.37651,-6.15096 -0.76887,-2.5163 -1.88722,0 0.83876,2.3765 -2.4464,6.29076 2.02702,0"
       id="path74"
       style="fill:#808080;fill-opacity:1;fill-rule:nonzero;stroke:none" /><path
       d="m 464.40967,767.32724 c 4.29752,0.20387 4.41052,-6.5983 0,-6.64024 -4.47226,-0.22716 -4.32897,6.81732 0,6.64024 z m 0,-5.38209 0.34949,0 0.20969,0.1398 0.27959,0.13979 0.13979,0.1398 0.20969,0.34948 0.0699,0.34949 0.0699,0.48928 c 0.0326,0.98555 0.16542,2.6759 -1.32805,2.5163 l -0.41939,0 -0.34948,-0.20969 -0.27959,-0.27959 -0.1398,-0.34949 -0.0699,-0.34948 -0.1398,-0.27959 0,-0.62908 c -0.0478,-0.80847 0.34366,-2.15516 1.39795,-2.02702"
       id="path76"
       style="fill:#808080;fill-opacity:1;fill-rule:nonzero;stroke:none" /><path
       d="m 469.37238,765.9293 -0.97857,0 0,1.25815 0.97857,0 0,1.25815 0.0699,0.41938 0.0699,0.34949 0.20969,0.20969 c 0.95759,0.81314 1.59366,0.62209 2.79589,0.62908 l 0,-1.39795 -0.34948,0.1398 -0.34949,-0.1398 -0.27959,0 -0.13979,-0.0699 -0.0699,-0.13979 -0.20969,-0.27959 0,-0.97856 1.18825,0 0,-1.25815 -1.18825,0 0,-4.96271 -1.74743,0 0,4.96271"
       id="path78"
       style="fill:#808080;fill-opacity:1;fill-rule:nonzero;stroke:none" /><path
       d="m 480.97532,769.91344 3.14538,-8.94685 -1.88722,0 -0.69898,1.95712 -3.56476,0 -0.62907,-1.95712 -1.88723,0 3.21527,8.94685 2.30661,0 z m 0.0699,-5.59178 -1.25815,3.84435 -1.39795,-3.84435 2.6561,0"
       id="path80"
       style="fill:#808080;fill-opacity:1;fill-rule:nonzero;stroke:none" /><path
       d="m 487.12628,767.18745 0,-0.83877 0.2097,0.34949 0.27959,0.20969 0.34948,0.20969 0.20969,0.0699 0.55918,0.13979 0.34949,0 c 1.47134,-0.021 2.39515,-1.03914 2.5862,-2.4464 0.0536,-1.70783 -0.0175,-2.74114 -1.53774,-3.77445 l -0.55918,-0.2097 -0.62908,-0.0699 -0.41938,0.0699 -0.34949,0.0699 -0.48928,0.1398 -0.34948,0.34948 -0.1398,0.20969 0,-3.14537 -1.88722,0 0,8.66726 1.81732,0 z m 2.6561,-3.00558 c 0.10601,2.8553 -2.9485,2.40912 -2.6561,-0.2097 l 0,-0.41938 0.0699,-0.34949 0.0699,-0.27959 0.20969,-0.34948 0.20969,-0.27959 0.34949,-0.1398 0.41938,-0.0699 0.34949,0 0.27959,0.13979 0.20969,0.1398 0.20969,0.27959 0.1398,0.27958 0.0699,0.27959 0.0699,0.97857"
       id="path82"
       style="fill:#808080;fill-opacity:1;fill-rule:nonzero;stroke:none" /><path
       d="m 494.88488,767.18745 0.0699,-0.83877 c 1.18825,1.86975 4.36276,0.98322 4.47343,-1.46784 0.20153,-1.37698 -0.10951,-3.15703 -1.53774,-3.77445 l -0.48929,-0.2097 -0.69897,-0.0699 -0.41938,0.0699 -0.83877,0.2097 -0.34949,0.34948 -0.13979,0.20969 0,-3.14537 -1.88723,0 0,8.66726 1.81733,0 z m 2.726,-3.00558 c 0.10484,2.8553 -2.88327,2.4033 -2.726,-0.2097 l 0,-0.41938 0.0699,-0.34949 0.0699,-0.27959 0.20969,-0.34948 0.20969,-0.27959 0.34949,-0.1398 0.41938,-0.0699 c 1.10438,-0.1398 1.40144,1.29426 1.39795,2.09692"
       id="path84"
       style="fill:#808080;fill-opacity:1;fill-rule:nonzero;stroke:none" /><path
       d="m 500.96595,760.96659 1.81733,0 0,8.94685 -1.81733,0 0,-8.94685 z"
       id="path86"
       style="fill:#808080;fill-opacity:1;fill-rule:nonzero;stroke:none" /><path
       d="m 504.53071,769.84355 2.02702,0 0,-1.60764 -2.02702,0 0,1.60764 z m 0.0699,-2.6561 1.81733,0 0,-6.22086 -1.81733,0 0,6.22086 z"
       id="path88"
       style="fill:#808080;fill-opacity:1;fill-rule:nonzero;stroke:none" /><path
       d="m 509.70311,763.55279 c -0.14795,-1.93149 2.11206,-2.18545 2.3765,-0.76887 l 1.67754,0 c 0.10018,-1.702 -1.93616,-2.26118 -3.28517,-2.09692 -0.89469,0.18639 -1.63444,0.41007 -2.09692,1.25815 -0.45317,1.05545 -0.69548,2.50815 -0.1398,3.56476 1.0904,3.00559 6.12766,2.57805 5.73158,-1.95712 l -4.26373,0 z m 2.3765,1.18825 -0.0699,0.34949 -0.0699,0.48928 -0.20969,0.1398 -0.1398,0.27958 -0.27959,0.0699 -0.27959,0.0699 -0.34948,-0.0699 -0.27959,-0.0699 -0.1398,-0.0699 -0.20969,-0.20969 -0.13979,-0.48929 -0.20969,-0.48928 2.3765,0"
       id="path90"
       style="fill:#808080;fill-opacity:1;fill-rule:nonzero;stroke:none" /><path
       d="m 519.55862,769.84355 1.81733,0 0,-8.87696 -1.81733,0 0,0.83877 c -1.48997,-2.02469 -4.81243,-0.80732 -4.61322,2.09692 -0.24231,2.7388 2.59086,4.6039 4.61322,2.5163 l 0,3.42497 z m -1.46784,-7.8984 c 1.35484,0.31571 1.28611,0.75722 1.53774,2.23672 l -0.0699,0.41938 -0.13979,0.41938 -0.0699,0.27959 -0.13979,0.27959 -0.2097,0.27959 -0.20969,0.0699 -0.27959,0.13979 c -1.12418,0.12582 -1.34901,-0.57665 -1.67753,-1.46784 0.0559,-1.29194 -0.12931,-2.36369 1.25815,-2.6561"
       id="path92"
       style="fill:#808080;fill-opacity:1;fill-rule:nonzero;stroke:none" /><path
       d="m 528.36568,763.83238 c -0.1794,-1.91402 2.19943,-2.22506 3.07548,-1.18825 l 0.13979,0.13979 0.1398,0.27959 0,0.55918 -0.1398,0.20969 -0.0699,0.13979 -0.20969,0.2097 -0.55918,0.13979 -0.76887,0.27959 -1.39795,0.41938 -0.62907,0.20969 c -5.05008,4.03075 5.48693,7.47086 5.52188,2.09692 l -1.88723,0 c 0.0944,0.73742 -0.34133,1.12185 -0.97856,1.32805 l -0.41938,0 -0.62908,-0.0699 -0.20969,-0.0699 -0.27959,-0.1398 -0.13979,-0.20969 -0.1398,-0.13979 -0.0699,-0.27959 -0.0699,-0.2097 0.0699,-0.34948 0.0699,-0.20969 0.2097,-0.2097 c 1.37464,-0.70479 2.45688,-0.65353 3.77445,-1.32804 1.07875,-0.91449 1.0205,-1.01701 0.97856,-2.37651 -0.64305,-1.64259 -1.2931,-1.91635 -3.00558,-2.23671 -2.39748,-0.44735 -4.23578,0.30521 -4.40353,3.00558 l 2.02702,0"
       id="path94"
       style="fill:#808080;fill-opacity:1;fill-rule:nonzero;stroke:none" /><path
       d="m 538.64058,765.02063 -0.13979,0.20969 -0.0699,0.41939 -0.0699,0.20969 -0.13979,0.13979 -0.2097,0.0699 -0.20969,0.0699 -0.27959,-0.0699 -0.27959,-0.13979 -0.13979,-0.27959 -0.0699,-0.20969 -0.20969,-0.69898 0,-0.55917 0.0699,-0.97857 c 0.23881,-0.90051 0.1561,-0.9308 0.90866,-1.25815 l 0.20969,0.1398 0.27959,0.0699 0.2097,0.41939 0.13979,0.20969 0,0.41938 1.81733,0 c 0.006,-1.4259 -1.20223,-2.55591 -2.5862,-2.3765 -2.11672,-0.0839 -2.84132,1.34086 -3.00558,3.21527 -0.12465,4.3977 5.81895,3.93638 5.52188,0.97856 l -1.74743,0"
       id="path96"
       style="fill:#808080;fill-opacity:1;fill-rule:nonzero;stroke:none" /><path
       d="m 541.64616,769.84355 1.95713,0 0,-1.60764 -1.95713,0 0,1.60764 z m 0,-2.6561 1.88723,0 0,-6.22086 -1.88723,0 0,6.22086 z"
       id="path98"
       style="fill:#808080;fill-opacity:1;fill-rule:nonzero;stroke:none" /><path
       d="m 546.81856,763.55279 c -0.2726,-1.57851 1.83131,-2.44757 2.37651,-0.76887 l 1.67753,0 c 0.0303,-1.62511 -1.95129,-2.28448 -3.28517,-2.09692 -2.57105,0.31221 -2.8553,2.70852 -2.30661,4.82291 0.44501,1.44688 2.16216,2.10624 3.56476,1.81733 1.75792,-0.37977 2.36137,-2.12371 2.16682,-3.77445 l -4.19384,0 z m 2.37651,1.18825 0,0.34949 -0.20969,0.48928 -0.0699,0.1398 -0.27959,0.27958 -0.20969,0.0699 -0.34949,0.0699 c -0.90633,-0.1829 -1.03098,-0.25862 -1.18825,-1.39795 l 2.30661,0"
       id="path100"
       style="fill:#808080;fill-opacity:1;fill-rule:nonzero;stroke:none" /><path
       d="m 552.48024,766.06909 -0.0699,1.18826 1.74744,0 0.0699,-0.97857 c 0.53239,0.87255 1.46552,1.18826 2.44641,1.04846 l 0.41938,-0.0699 0.27959,-0.1398 0.34949,-0.20969 0.27959,-0.34949 0.20969,-0.41938 0.13979,-0.55918 0,-4.61322 -1.81733,0 0,4.19384 -0.0699,0.34948 -0.2097,0.1398 -0.13979,0.27959 -0.27959,0.0699 -0.55918,0 -0.34948,-0.0699 -0.34949,-0.34949 -0.13979,-0.41938 -0.1398,-0.55918 0,-3.63466 -1.81733,0 0,5.1025"
       id="path102"
       style="fill:#808080;fill-opacity:1;fill-rule:nonzero;stroke:none" /><path
       d="m 563.52401,765.02063 0,0.20969 -0.0699,0.41939 -0.0699,0.20969 -0.20969,0.13979 -0.1398,0.0699 -0.27959,0.0699 -0.34948,-0.0699 -0.1398,-0.13979 -0.20969,-0.27959 -0.1398,-0.20969 -0.0699,-0.69898 -0.0699,-0.55917 0.0699,-0.97857 c 0.31919,-1.07991 -0.0594,-0.71178 0.90866,-1.25815 0.80965,0.49977 0.56733,-0.008 0.83877,1.25815 l 1.81733,0 c -0.10601,-3.79658 -6.04612,-2.88792 -5.52189,0.83877 -0.2458,3.99114 5.25045,4.31616 5.52189,0.97856 l -1.88723,0"
       id="path104"
       style="fill:#808080;fill-opacity:1;fill-rule:nonzero;stroke:none" /><path
       d="m 568.06734,763.55279 c 0.002,-2.041 2.20176,-2.11556 2.4464,-0.76887 l 1.67753,0 -0.0699,-0.20969 -0.0699,-0.34949 -0.13979,-0.41938 -0.27959,-0.41939 c -1.00303,-0.68848 -1.55056,-0.75256 -2.726,-0.69897 -2.47087,0.2027 -3.0615,2.99859 -2.23671,4.82291 0.96924,2.91472 6.04961,2.6759 5.73158,-1.95712 l -4.33363,0 z m 2.3765,1.18825 0,0.34949 -0.0699,0.48928 -0.2097,0.1398 -0.13979,0.27958 -0.27959,0.0699 -0.41938,0.0699 c -0.94245,-0.226 -0.87838,-0.36696 -1.18826,-1.39795 l 2.30661,0"
       id="path106"
       style="fill:#808080;fill-opacity:1;fill-rule:nonzero;stroke:none" /><path
       d="m 574.98717,762.71402 0.0699,-0.20969 0.20969,-0.34949 0.34949,-0.20969 0.48928,-0.0699 0.41939,0.0699 0.27959,0.20969 0.20969,0.2097 0,0.41938 -0.1398,0.20969 -0.69897,0.34949 -1.18825,0.27959 -0.41939,0.20969 -0.48928,0.20969 -0.27959,0.27959 -0.20969,0.27959 c -1.23019,3.01024 4.89281,3.93289 5.0326,0.90866 l -1.67753,0 -0.0699,0.2097 -0.0699,0.20969 -0.27959,0.20969 -0.27959,0.13979 -0.2097,0 -0.34948,-0.13979 -0.34949,-0.0699 -0.13979,-0.13979 0,-0.62908 0.13979,-0.13979 0.27959,-0.0699 0.41938,-0.0699 c 0.74092,-0.37511 2.07828,-0.40191 2.51631,-1.25815 1.74743,-3.23275 -5.2388,-4.34295 -5.2423,-1.04846 l 1.67754,0"
       id="path108"
       style="fill:#808080;fill-opacity:1;fill-rule:nonzero;stroke:none" /></g></svg>